<svg width="44" height="40" viewBox="0 0 44 40" fill="none" xmlns="http://www.w3.org/2000/svg">
<rect width="44" height="40" rx="10" fill="#2ECC71"/>
<path fill-rule="evenodd" clip-rule="evenodd" d="M20 15L30 15V16.5351C28.8044 17.2267 28 18.5194 28 20C28 21.4806 28.8044 22.7733 30 23.4649V25H20V24C20 23.4477 19.5523 23 19 23C18.4477 23 18 23.4477 18 24V25H14L14 23.4649C15.1956 22.7733 16 21.4806 16 20C16 18.5194 15.1956 17.2267 14 16.5351V15H18V16C18 16.5523 18.4477 17 19 17C19.5523 17 20 16.5523 20 16V15ZM19 27H14C12.8954 27 12 26.1046 12 25V24V22C13.1046 22 14 21.1046 14 20C14 18.8954 13.1046 18 12 18V16V15C12 13.8954 12.8954 13 14 13H19H30C31.1046 13 32 13.8954 32 15V16V18C30.8954 18 30 18.8954 30 20C30 21.1046 30.8954 22 32 22V24V25C32 26.1046 31.1046 27 30 27H19ZM19 18C19.5523 18 20 18.4477 20 19V21C20 21.5523 19.5523 22 19 22C18.4477 22 18 21.5523 18 21V19C18 18.4477 18.4477 18 19 18Z" fill="white"/>
</svg>
